<svg width="25" height="23" viewBox="0 0 25 23" fill="none" xmlns="http://www.w3.org/2000/svg">
<path d="M9.09091 23H19.3182C20.2614 23 21.0682 22.425 21.4091 21.597L24.8409 13.4895C24.9432 13.225 25 12.949 25 12.65V10.35C25 9.085 23.9773 8.05 22.7273 8.05H15.5568L16.6364 2.7945L16.6705 2.4265C16.6705 1.955 16.4773 1.518 16.1705 1.2075L14.9659 0L7.47727 7.5785C7.06818 7.9925 6.81818 8.5675 6.81818 9.2V20.7C6.81818 21.965 7.84091 23 9.09091 23ZM9.09091 9.2L14.0227 4.209L12.5 10.35H22.7273V12.65L19.3182 20.7H9.09091V9.2ZM0 9.2H4.54545V23H0V9.2Z" fill="#9CCC65"/>
</svg>
